<svg xmlns="http://www.w3.org/2000/svg" viewBox="0 0 562.345 481.087"><defs><style>.cls-1{isolation:isolate;}.cls-2{fill:#a5d3b1;}.cls-3{fill:#91c4a4;}.cls-4{fill:#b9dcc2;}.cls-5{fill:#d86157;}.cls-6{fill:#72a68c;}.cls-7{fill:#e83b5e;}.cls-15,.cls-8{fill:#781427;}.cls-14,.cls-8{opacity:0.38;}.cls-9{fill:#f08caa;opacity:0.59;}.cls-10,.cls-11{fill:#187a4a;}.cls-11{opacity:0.31;}.cls-12{fill:#6a1510;}.cls-13{fill:#eeeded;}.cls-16{fill:#e6d70a;}.cls-17,.cls-22{fill:#fff;}.cls-18{fill:#7f3f12;}.cls-19{fill:#30381b;}.cls-20{fill:#576f28;}.cls-21{opacity:0.2;}.cls-22,.cls-23{mix-blend-mode:soft-light;}.cls-23{fill:#faf5f1;opacity:0.5;}.cls-24{fill:#6d4224;}.cls-25{opacity:0.21;}.cls-26{fill:#d3c308;}</style></defs><title>ilustracionesPersonaje</title><g class="cls-1"><g id="Layer_1" data-name="Layer 1"><path class="cls-2" d="M165.873,342.288c-1.258-9.2-13.952-8.974-13.952-8.974s1.113-17.069-8.162-20.406-16.416,2.687-16.416,2.687-2.226-8.625-9.182-10.143-9.182,4.3-9.182,4.3-9-9.06-17.529-4.3c-11.03,6.153-7.234,14.873-7.234,14.873s-14.19-3.617-28.658,9.738a34,34,0,0,0-10.851,30.328H158.9S167.131,351.488,165.873,342.288Z"/><ellipse class="cls-3" cx="102.58" cy="335.176" rx="7.775" ry="3.617" transform="translate(-238.98 256.424) rotate(-60)"/><ellipse class="cls-3" cx="127.696" cy="335.176" rx="3.617" ry="7.775" transform="translate(-172.033 138.169) rotate(-35.828)"/><ellipse class="cls-3" cx="64.076" cy="344.524" rx="3.617" ry="7.775" transform="translate(-20.636 4.485) rotate(-3.453)"/><ellipse class="cls-3" cx="58.698" cy="348.077" rx="3.617" ry="7.775" transform="translate(-287.634 279.834) rotate(-69.281)"/><path class="cls-4" d="M109.947,367.379a3.276,3.276,0,0,1-2.663-5.189c2.777-3.779,7.575-8.317,14.789-8.768,12.554-.785,18.771,7.4,18.771,7.4s2.61-20.071,24.434-21.846,21.661,15.8,21.661,15.8,6.213-8.727,25.042-2.943c8.493,2.609,10.077,8.611,10.167,12.409a3.276,3.276,0,0,1-3.289,3.345Z"/><circle class="cls-5" cx="98.717" cy="328.422" r="2.182"/><circle class="cls-5" cx="109.507" cy="347.918" r="2.182"/><circle class="cls-5" cx="75.585" cy="346.649" r="2.182"/><rect class="cls-6" x="43.378" y="359.203" width="454.283" height="73.102"/></g><g id="Layer_2" data-name="Layer 2"><circle class="cls-5" cx="91.005" cy="342.317" r="2.182"/><path class="cls-7" d="M214.124,297.168c-1.888-6.455,8.174-9.212,10.057-2.773,4.437,15.169,9.09,30.14,10.611,45.947a189.89,189.89,0,0,1-1.119,47.675c-.441,2.784-3.917,4.329-6.415,3.642-2.966-.815-4.085-3.623-3.642-6.415,2.33-14.7,2.162-30.108.746-44.9C222.945,325.531,218.28,311.376,214.124,297.168Z"/><path class="cls-7" d="M187.751,297.168c1.888-6.455-8.174-9.212-10.057-2.773-4.437,15.169-9.09,30.14-10.611,45.947a189.889,189.889,0,0,0,1.119,47.675c.441,2.784,3.917,4.329,6.415,3.642,2.966-.815,4.085-3.623,3.642-6.415-2.33-14.7-2.162-30.108-.746-44.9C178.93,325.531,183.595,311.376,187.751,297.168Z"/><path class="cls-7" d="M246.943,304.236c39.787-13.8,70.206-44.68,69.586-93.633-.365-28.32-14.078-50.8-34.912-66.92C214.679,91.9,74.248,105.978,67.729,204.377,61.74,294.979,171.259,330.511,246.943,304.236Z"/><path class="cls-8" d="M246.943,303.717l-1.552.219c-17.912,2.356-36.409,1.808-53.627-3.652-37.888-12-66.336-49.245-67.942-88.977-.475-11.686,1.424-24.029,8.619-33.232a33.471,33.471,0,0,1,58.813,12.416c2.282,9.056,2.21,21.035,10.919,24.431,6.007,2.337,13-1.661,16.214-7.267s3.6-12.325,3.907-18.789c12.562,11.649,34.345,11.321,46.543-.712A125.9,125.9,0,0,1,230.053,151.4c5.149,7.578,31.479,6.336,38.582,3.36,6.1-2.538,10.481-6.336,12.982-11.594C214.679,91.381,74.248,105.459,67.729,203.857,61.74,294.459,171.259,329.992,246.943,303.717Z"/><path class="cls-9" d="M266.139,160.981c9.269-14.073,32.777,2.329,37.936,22.161S294.95,206.8,291.448,199.7s-8.4-15.99-17.6-23.742S263.809,164.518,266.139,160.981Z"/><path class="cls-10" d="M176.962,155.368c-4.364,5.76-17.9-14.315-35.671-12.285s-27.914,28.081-55.648,16.408c0,0,14.882.548,33.822-19.43S185.08,144.654,176.962,155.368Z"/><path class="cls-10" d="M192.022,145.813s17.19-18.289,39.622-10.171,39.343,3.382,46.108-12.853c0,0-12.176,14.205-31.116,5.412S195.582,119.457,192.022,145.813Z"/><path class="cls-10" d="M189.138,150.523s-.622-10.147,16.262-21.646,20.448-21.646,18.666-45.322c0,0-1.557,19.1-15.875,28.827S185.08,132.259,189.138,150.523Z"/><path class="cls-10" d="M181.021,150.523s-6.162-30.795-28.447-36.029-32.433-27.557-32.433-27.557-4.072,19.617,15.213,30.1S168.169,129.554,181.021,150.523Z"/><path class="cls-10" d="M161.855,74.085s-7.892,13.456,5.637,29.727S177.9,149.8,177.9,149.8s-.243-13.566-15.473-30.1S155.542,80.173,161.855,74.085Z"/><path class="cls-10" d="M163.426,148.044c2.465,3.1,8.344,5.368,14.461,6.5,9.038,1.68,18.588.895,18.241-3.341-3.834-48.022,8.564-61.552,9.239-69,.347-3.853-2.757-5.532-5.843-6.245a22.01,22.01,0,0,0-5.642-.511C180.352,85.579,157.345,140.375,163.426,148.044Z"/><path class="cls-10" d="M195.032,81.544c2.629,2.83,7.468,4.327,10.335.657,2.611-3.341-.11-6.482-3.634-7.852-2.885-1.114-6.336-1.041-7.851,1.1C192.531,77.308,193.316,79.718,195.032,81.544Z"/><path class="cls-11" d="M163.426,148.044c2.465,3.1,8.344,5.368,14.461,6.5-5.532-24.175,4.638-50.669,17.145-73,.146-.274.311-.529.457-.8a17.25,17.25,0,0,1,4.035-4.784,19.569,19.569,0,0,1,2.209-1.607c-2.885-1.114-6.336-1.041-7.851,1.1C180.352,85.579,157.345,140.375,163.426,148.044Z"/><path class="cls-10" d="M177.757,152.78c-5.672,6.882,17.588,3.511,21.646,20.3s.676,21.527,6.088,28.968a168.25,168.25,0,0,1,4.457-29.269C213.608,158.759,189.933,138.007,177.757,152.78Z"/><path class="cls-10" d="M189.434,147.216c-4.988,5.6,9.5.043,20.893,14.924s24.928,30.44,44.206,18.264c0,0-20.175,0-25.477-16.235S198.592,136.931,189.434,147.216Z"/><circle class="cls-12" cx="258.36" cy="189.979" r="13.67" transform="translate(-48.506 96.839) rotate(-19.444)"/><circle class="cls-12" cx="196.294" cy="208.854" r="12.554" transform="translate(-58.329 77.254) rotate(-19.444)"/><circle class="cls-13" cx="200.154" cy="202.527" r="3.197" transform="translate(-58.34 83.113) rotate(-20.543)"/><circle class="cls-13" cx="262.969" cy="183.264" r="3.197" transform="translate(-47.586 103.93) rotate(-20.543)"/><g class="cls-14"><path class="cls-15" d="M213.834,232.981c17.239,9.992,38.454,1.456,39.687-19.514.15-2.568-3.82-3.074-3.971-.5-1.039,17.7-18.48,25.4-33.333,16.795-2.2-1.278-4.617,1.921-2.382,3.216Z"/></g><circle class="cls-9" cx="173.104" cy="237.246" r="13.345"/><circle class="cls-9" cx="286.855" cy="206.108" r="13.345"/><path class="cls-16" d="M241.411,402.917H217.458s-4.978-48.674-2.821-51.3,26.919-2.584,28.646,0S241.411,402.917,241.411,402.917Z"/><path class="cls-10" d="M241.411,402.917H217.458s-4.978-48.674-2.821-51.3,26.919-2.584,28.646,0S241.411,402.917,241.411,402.917Z"/><path class="cls-4" d="M246.26,403.417c-.151-9.428-7.836-14.272-17.3-14.272s-17.149,4.844-17.3,14.272Z"/><path class="cls-17" d="M226.415,391.295a14.424,14.424,0,0,1,2.493-.367,6.55,6.55,0,0,0,1.676-.168c.39-.122.224-.737-.169-.615a9.89,9.89,0,0,1-2.029.185,16.9,16.9,0,0,0-2.141.351c-.4.09-.231.705.169.615Z"/><path class="cls-17" d="M216.061,399.49a18.5,18.5,0,0,1,7.637-7.26c.37-.178.047-.727-.322-.55a19.132,19.132,0,0,0-7.866,7.489c-.218.349.334.669.55.322Z"/><path class="cls-10" d="M246.26,409.36v-5.944h-34.6v5.944c1.573,0,3.092.384,4.629.052.783-.169,1.539-.456,2.331-.574a5.614,5.614,0,0,1,3.075.415,12.076,12.076,0,0,0,2.223,1,6.882,6.882,0,0,0,2.991-.332,18.917,18.917,0,0,1,5.682-.456,9.817,9.817,0,0,0,2.281.032c1.286-.21,2.425-1.057,3.726-1.136a8.493,8.493,0,0,1,2.575.465A22.377,22.377,0,0,0,246.26,409.36Z"/><path class="cls-16" d="M185.027,398.964H161.073s-4.978-48.674-2.821-51.3,26.919-2.584,28.646,0S185.027,398.964,185.027,398.964Z"/><path class="cls-10" d="M185.027,398.964H161.073s-4.978-48.674-2.821-51.3,26.919-2.584,28.646,0S185.027,398.964,185.027,398.964Z"/><path class="cls-2" d="M165.889,361.113c0-4.177.147-8.406-.095-12.567-.088-1.521-5.6.5-5.6.5-.121,7.395-.176,19.006.643,26.375.178,1.6.229,3.823,1.238,5.186,1.047,1.415,2.277,1.258,2.815-.424C166.778,374.294,165.889,367.166,165.889,361.113Z"/><path class="cls-2" d="M189.875,399.464c-.151-9.428-7.836-14.272-17.3-14.272s-17.149,4.844-17.3,14.272Z"/><path class="cls-10" d="M189.875,405.407v-5.944h-34.6v5.944c1.573,0,3.092.384,4.629.052.783-.169,1.539-.456,2.331-.574a5.614,5.614,0,0,1,3.075.415,12.076,12.076,0,0,0,2.223,1,6.882,6.882,0,0,0,2.991-.332,18.917,18.917,0,0,1,5.682-.456,9.817,9.817,0,0,0,2.281.032c1.286-.21,2.425-1.057,3.726-1.136a8.493,8.493,0,0,1,2.575.465A22.377,22.377,0,0,0,189.875,405.407Z"/><path class="cls-2" d="M222.478,365.475c0-4.177.147-8.406-.095-12.567-.088-1.521-5.6.5-5.6.5-.121,7.395-.176,19.006.643,26.375.178,1.6.229,3.823,1.238,5.186,1.047,1.415,2.277,1.258,2.815-.424C223.367,378.656,222.478,371.528,222.478,365.475Z"/><path class="cls-18" d="M440.986,255.355c.41,20.678,20.861,71.56,24.262,111.043a18.867,18.867,0,0,1-15.07,20.012c-24.627,5.132-50.388,4.431-76.937-.33a18.9,18.9,0,0,1-15.519-19.985c3.33-45.944,17.041-107.125,15.609-126.677-1.333-18.2-36.246-56.307-47.947-64.214a3.285,3.285,0,0,1-.465-5.077,24.548,24.548,0,0,1,6.729-4.629,3.271,3.271,0,0,1,3.906.931c6.689,8.305,34.162,41.041,50.473,39.55,16.067-1.469,4.946-46.143,1.528-58.585a3.286,3.286,0,0,1,2.571-4.1,17.5,17.5,0,0,1,7.815.181,3.233,3.233,0,0,1,2.343,2.715c1.3,9.884,7.656,53.4,18.981,56.918,21.15,6.574,52.688-22.659,60.884-30.741a3.316,3.316,0,0,1,4.527-.07,12.954,12.954,0,0,1,4.253,8.863,3.337,3.337,0,0,1-1.927,3.3C476.7,189.14,440.336,222.5,440.986,255.355Z"/><path class="cls-19" d="M363.3,56.823c2.04-25.5-28.849-8.08-19.749,11.137-9.1-19.217-11.42-2.111-1.483,10.936-9.937-13.048-42.476-2.134-20.8,6.978-21.672-9.111-41.6,38.372-12.741,30.358-28.859,8.014,4.442,35.075,21.291,17.3-16.849,17.774,11.728,20.314,18.271,1.625-6.542,18.69,8.122,27.452,9.376,5.6-1.253,21.85,57.087,31.968,37.3,6.469,19.787,25.5,44.941-27.535,16.082-33.907,28.859,6.372,7.429-13.755-13.7-12.868,21.131-.887,28.379-31.5,4.635-19.574,23.744-11.929-13.483-24.2-23.8-7.848C388.293,56.675,365.34,31.324,363.3,56.823Z"/><path class="cls-19" d="M457.573,57.6c-4.289-21.638-28.854-.155-15.705,13.735-13.149-13.89-12.032,1.956.714,10.131-12.746-8.175-40.017,7.756-17.436,10.186-22.582-2.429-31.635,44.086-5.789,29.739-25.847,14.346,9.228,32.486,22.425,11.6-13.2,20.889,13.026,17.822,16.765-1.961-3.74,19.783,11.115,24.928,9.5,3.29,1.618,21.638,56.076,19.82,34.817-1.163,21.258,20.983,33.981-31.513,8.134-33.563,25.847,2.049,2.767-12.068-14.756-9.026,17.523-3.042,18.316-31.984.507-18.5,17.809-13.48-18.033-17.562-22.915-2.61C478.715,54.5,453.284,35.959,457.573,57.6Z"/><path class="cls-20" d="M440.186,47.38c9.339-12.907-13.689-5.845-16.336,5.01,2.647-10.855-13.679-29.921-11.582-13.526-2.1-16.4-22.726-1.335-14.634,10.684-8.092-12.019-10.453,5.2-1.675,12.216-8.778-7.015-27.555-3.353-13.32,2.6-14.235-5.951-18.7,27.191-3.169,23.511-15.533,3.68,20.817,16.313,25.786,8.962-4.969,7.352,11.982,36.26,12.025,20.508-.043,15.752,25.547,17.966,18.154,1.571,7.393,16.4,15.415-5.948,5.691-15.851,9.724,9.9,29.711-20.514,14.179-21.578,15.533,1.063.479-17.765-10.679-13.357C455.783,63.72,449.525,34.473,440.186,47.38Z"/><path class="cls-20" d="M358.424,149.169c13.525-10.3,27.5,20.207,8.209,17.918,19.293,2.29-4.054,12.507-13.712,6,9.658,6.507,10.548,20.074.523,7.968,10.025,12.106-11.466,27.839-12.622,9.24,1.156,18.6-19.816,3.761-12.316-8.714-7.5,12.475-19.044,16.11-6.78,2.135-12.264,13.975-29.3-15.636-10-17.391-19.293,1.755-3.172-12.521,9.468-8.384-12.64-4.137-11.852-20.505.463-9.613-12.315-10.892,8.714-29.566,12.35-10.967-3.636-18.6,11.652-7.026,8.979,6.8C345.655,130.335,371.948,138.868,358.424,149.169Z"/><path class="cls-20" d="M457.637,126.544c-16.618-16.431,22.8-40.76,23.148-14.288-.352-26.472,17.61,3.772,10.549,17.762,7.061-13.99,25.494-17.515,10.826-2.07,14.668-15.445,39.869,11.319,14.8,15.719,25.068-4.4,8.308,26.847-9.844,18.351,18.151,8.5,25.091,23.692,4.076,8.924,21.015,14.767-16.651,43.129-22.121,16.657,5.471,26.472-16.822,6.815-13.092-11.545-3.729,18.36-26.284,20.061-13.246,1-13.038,19.062-42.189-6.569-17.121-15.053-25.068,8.484-11.814-14.423,7.784-13.454C433.8,147.578,441.018,110.113,457.637,126.544Z"/><path class="cls-19" d="M386.177,192.26c-15.5,25.325,21.1,16.711,22.909-5.393-1.81,22.1,10.882,8.734,7.946-8.37,2.936,17.1,28.721,27.766,16.141,6.675,12.579,21.091,46.267,1.63,21.089-12.183,25.178,13.813,13.614-14.185-7.239-17.527,20.853,3.342,11.744-41.9-5.7-28.323,17.447-13.578-30.693-44.99-30.136-19.665-.557-25.325-25.06,2.59-15.339,17.475-9.72-14.886-39.895-21.143-18.89-3.918-21.005-17.226-31.643,15.4-6.659,20.424-24.983-5.024-8.092,5.281,10.574,6.451-18.666-1.171-36.078,20.553-10.9,13.6-25.178,6.954-17.149,24.8,5.026,11.17C352.821,186.3,370.681,217.586,386.177,192.26Z"/><g class="cls-21"><path class="cls-22" d="M416.348,107.047c-2.133,3.36,2.732,7.179,8.281,10.7s9.681,5.415,11.814,2.055-2.494-9.979-8.043-13.5S418.481,103.687,416.348,107.047Z"/><path class="cls-22" d="M440.076,180.292c-1.452,2.639-.174,6.129,2.853,7.794s6.659.876,8.11-1.763-.788-4.38-3.815-6.045S441.527,177.653,440.076,180.292Z"/></g><path class="cls-23" d="M375.377,309.113c-.307,3.727-.528,7.6.8,11.092s4.654,6.511,8.387,6.28c4.693-.289,7.608-5.132,9.383-9.487a106.486,106.486,0,0,0,5.873-59.277c-.576-3.1-4.273-23.563-11.054-16.293-2.67,2.862-3.428,11.2-4.416,14.987q-2.055,7.882-3.694,15.864A309.783,309.783,0,0,0,375.377,309.113Z"/><path class="cls-24" d="M469.756,370.989s.856-12.123-9.982-14.976c-.409-.107-.846-.2-1.3-.3-2.353-3.528-6.9-5.919-12.126-5.919-6.4,0-11.769,3.59-13.349,8.457-5.929,2.626-10.255,7.006-10.021,13.753,0,0-15.116,4.256-14.261,13.1s15.241,3.3,15.241,3.3,24.528,15.672,44.778-1.861c0,0,15.208,5.176,15.276-6.289C484.069,371.56,469.756,370.989,469.756,370.989Z"/><g class="cls-25"><path class="cls-26" d="M417.493,379.982c1.2-2.308,4.29-4.829,6.974-3.045.538.357,1.039-.509.5-.863-3.138-2.085-6.892.616-8.343,3.4-.3.57.566,1.076.863.5Z"/><path class="cls-26" d="M425.548,378.6c.629-1.648,1.657-3.813,3.721-3.721.643.029.642-.971,0-1-2.566-.114-3.894,2.382-4.686,4.455-.23.6.737.862.964.266Z"/><path class="cls-26" d="M430.643,363.253c-1.353,1.65-2.517,3.479-1.856,5.726a.5.5,0,0,0,.964-.266c-.547-1.861.483-3.392,1.6-4.754.4-.494-.3-1.205-.707-.707Z"/><path class="cls-26" d="M438.071,356.574c-1.7,1.651-3.8,4.539-2.727,7.055.252.59,1.113.081.863-.5-.391-.918.131-2.441.537-3.286a9.308,9.308,0,0,1,2.034-2.557c.462-.449-.245-1.156-.707-.707Z"/><path class="cls-26" d="M440.192,363.067a10.21,10.21,0,0,0-3.916,2.53c-.7.8-1.683,2.151-.99,3.214.35.537,1.216.037.863-.5-.514-.789.965-2.2,1.467-2.641a10.072,10.072,0,0,1,2.841-1.634c.585-.244.328-1.212-.266-.964Z"/><path class="cls-26" d="M450.279,362.447c-1.576,1.306-3.087,3.223-2.432,5.381.186.614,1.152.352.964-.266-.546-1.8.891-3.344,2.175-4.408.5-.411-.215-1.115-.707-.707Z"/><path class="cls-26" d="M442.6,373.936c.306.412.557.856.884,1.253.41.5,1.114-.214.707-.707-.271-.329-.474-.708-.728-1.05-.379-.511-1.248-.013-.863.5Z"/><path class="cls-26" d="M459.356,362.362a6.046,6.046,0,0,1,.749,1.036c.27.583,1.133.076.863-.5a5.972,5.972,0,0,0-.749-1.036c-.382-.508-1.251-.01-.863.5Z"/><path class="cls-26" d="M456.765,369.272l.288.4c.371.519,1.239.02.863-.5l-.288-.4c-.371-.519-1.239-.02-.863.5Z"/><path class="cls-26" d="M464.452,366.352a.5.5,0,0,0,0-1,.5.5,0,0,0,0,1Z"/><path class="cls-26" d="M454.433,376.545a.5.5,0,0,0,0-1,.5.5,0,0,0,0,1Z"/><path class="cls-26" d="M447.27,385.69c.485.241.974.472,1.44.749a.5.5,0,0,0,.5-.863c-.466-.277-.955-.508-1.44-.749-.575-.285-1.082.577-.5.863Z"/><path class="cls-26" d="M434.717,387.417a20.214,20.214,0,0,0,3.114,2.008c.6.228.863-.738.266-.964a19.188,19.188,0,0,1-2.875-1.907.5.5,0,0,0-.5.863Z"/><path class="cls-26" d="M461.94,384.02c.248-.111.482-.251.733-.357a2.767,2.767,0,0,1,.446-.147.4.4,0,0,1,.147-.013c.041.007-.066-.112.006.049.263.586,1.125.078.863-.5-.509-1.136-1.975-.215-2.7.109-.587.262-.079,1.124.5.863Z"/><path class="cls-26" d="M469.559,378.657a13.885,13.885,0,0,1,1.44.4c.594.246.853-.721.266-.964a13.892,13.892,0,0,0-1.44-.4.5.5,0,0,0-.266.964Z"/><path class="cls-26" d="M467.784,374.095a7.3,7.3,0,0,1,.921.806c.416.492,1.12-.218.707-.707a7.3,7.3,0,0,0-.921-.806c-.488-.414-1.2.29-.707.707Z"/><path class="cls-26" d="M477.714,378a6.834,6.834,0,0,1,.058.979.5.5,0,0,0,1,0,6.835,6.835,0,0,0-.058-.979c-.081-.629-1.082-.638-1,0Z"/><path class="cls-26" d="M461.63,377.236a.5.5,0,0,0,0-1,.5.5,0,0,0,0,1Z"/><path class="cls-26" d="M422.186,384.03a3.568,3.568,0,0,1,2.007.429c.485.419,1.2-.286.707-.707a4.49,4.49,0,0,0-2.714-.722c-.641-.052-.638.948,0,1Z"/><path class="cls-26" d="M430.939,380.345c.5-.048,1.313-.3,1.641.213.347.539,1.213.039.863-.5-.6-.927-1.541-.8-2.5-.708-.635.061-.641,1.061,0,1Z"/><path class="cls-26" d="M438.806,378.25a9.4,9.4,0,0,1,.673,2.977.5.5,0,0,0,1,0,10.207,10.207,0,0,0-.709-3.242c-.216-.6-1.183-.342-.964.266Z"/></g><path class="cls-24" d="M422.914,377.358s.856-12.123-9.982-14.976c-.409-.107-.846-.2-1.3-.3-2.353-3.528-6.9-5.919-12.126-5.919-6.4,0-11.769,3.59-13.349,8.457-5.929,2.626-10.255,7.006-10.021,13.753,0,0-15.116,4.256-14.261,13.1s15.241,3.3,15.241,3.3,24.528,15.672,44.778-1.861c0,0,15.208,5.176,15.276-6.289C437.226,377.929,422.914,377.358,422.914,377.358Z"/><g class="cls-25"><path class="cls-26" d="M370.651,386.351c1.2-2.308,4.29-4.829,6.974-3.045.538.357,1.039-.509.5-.863-3.138-2.085-6.892.616-8.343,3.4-.3.57.566,1.076.863.5Z"/><path class="cls-26" d="M378.705,384.965c.629-1.648,1.657-3.813,3.721-3.721.643.029.642-.971,0-1-2.566-.114-3.894,2.382-4.686,4.455-.23.6.737.862.964.266Z"/><path class="cls-26" d="M383.8,369.622c-1.353,1.65-2.517,3.479-1.856,5.726a.5.5,0,0,0,.964-.266c-.547-1.861.483-3.392,1.6-4.754.4-.494-.3-1.205-.707-.707Z"/><path class="cls-26" d="M391.229,362.942c-1.7,1.651-3.8,4.539-2.727,7.055.252.59,1.113.081.863-.5-.391-.918.131-2.441.537-3.286a9.308,9.308,0,0,1,2.034-2.557c.462-.449-.245-1.156-.707-.707Z"/><path class="cls-26" d="M393.349,369.436a10.21,10.21,0,0,0-3.916,2.53c-.7.8-1.683,2.151-.99,3.214.35.537,1.216.037.863-.5-.514-.789.965-2.2,1.467-2.641a10.072,10.072,0,0,1,2.841-1.634c.585-.244.328-1.212-.266-.964Z"/><path class="cls-26" d="M403.436,368.816c-1.576,1.306-3.087,3.223-2.432,5.381.186.614,1.152.352.964-.266-.546-1.8.891-3.344,2.175-4.408.5-.411-.215-1.115-.707-.707Z"/><path class="cls-26" d="M395.757,380.3c.306.412.557.856.884,1.253.41.5,1.114-.214.707-.707-.271-.329-.474-.708-.728-1.05-.379-.511-1.248-.013-.863.5Z"/><path class="cls-26" d="M412.513,368.731a6.046,6.046,0,0,1,.749,1.036c.27.583,1.133.076.863-.5a5.972,5.972,0,0,0-.749-1.036c-.382-.508-1.251-.01-.863.5Z"/><path class="cls-26" d="M409.922,375.641l.288.4c.371.519,1.239.02.863-.5l-.288-.4c-.371-.519-1.239-.02-.863.5Z"/><path class="cls-26" d="M417.609,372.721a.5.5,0,0,0,0-1,.5.5,0,0,0,0,1Z"/><path class="cls-26" d="M407.59,382.913a.5.5,0,0,0,0-1,.5.5,0,0,0,0,1Z"/><path class="cls-26" d="M400.428,392.058c.485.241.974.472,1.44.749a.5.5,0,0,0,.5-.863c-.466-.277-.955-.508-1.44-.749-.575-.285-1.082.577-.5.863Z"/><path class="cls-26" d="M387.875,393.786a20.214,20.214,0,0,0,3.114,2.008c.6.228.863-.738.266-.964a19.188,19.188,0,0,1-2.875-1.907.5.5,0,0,0-.5.863Z"/><path class="cls-26" d="M415.1,390.388c.248-.111.482-.251.733-.357a2.767,2.767,0,0,1,.446-.147.4.4,0,0,1,.147-.013c.041.007-.066-.112.006.049.263.586,1.125.078.863-.5-.509-1.136-1.975-.215-2.7.109-.587.262-.079,1.124.5.863Z"/><path class="cls-26" d="M422.716,385.026a13.885,13.885,0,0,1,1.44.4c.594.246.853-.721.266-.964a13.892,13.892,0,0,0-1.44-.4.5.5,0,0,0-.266.964Z"/><path class="cls-26" d="M420.941,380.464a7.3,7.3,0,0,1,.921.806c.416.492,1.12-.218.707-.707a7.3,7.3,0,0,0-.921-.806c-.488-.414-1.2.29-.707.707Z"/><path class="cls-26" d="M430.872,384.371a6.834,6.834,0,0,1,.058.979.5.5,0,0,0,1,0,6.835,6.835,0,0,0-.058-.979c-.081-.629-1.082-.638-1,0Z"/><path class="cls-26" d="M414.788,383.6a.5.5,0,0,0,0-1,.5.5,0,0,0,0,1Z"/><path class="cls-26" d="M375.344,390.4a3.568,3.568,0,0,1,2.007.429c.485.419,1.2-.286.707-.707a4.49,4.49,0,0,0-2.714-.722c-.641-.052-.638.948,0,1Z"/><path class="cls-26" d="M384.1,386.714c.5-.048,1.313-.3,1.641.213.347.539,1.213.039.863-.5-.6-.927-1.541-.8-2.5-.708-.635.061-.641,1.061,0,1Z"/><path class="cls-26" d="M391.964,384.619a9.4,9.4,0,0,1,.673,2.977.5.5,0,0,0,1,0,10.207,10.207,0,0,0-.709-3.242c-.216-.6-1.183-.342-.964.266Z"/></g><path class="cls-24" d="M385.764,365.2s.856-12.123-9.982-14.976c-.409-.107-.846-.2-1.3-.3-2.353-3.528-6.9-5.919-12.126-5.919-6.4,0-11.769,3.59-13.349,8.457-5.929,2.626-10.255,7.006-10.021,13.753,0,0-15.116,4.256-14.261,13.1s15.241,3.3,15.241,3.3,24.528,15.672,44.778-1.861c0,0,15.208,5.176,15.276-6.289C400.077,365.771,385.764,365.2,385.764,365.2Z"/><g class="cls-25"><path class="cls-26" d="M333.5,374.193c1.2-2.308,4.29-4.829,6.974-3.045.538.357,1.039-.509.5-.863-3.138-2.085-6.892.616-8.343,3.4-.3.57.566,1.076.863.5Z"/><path class="cls-26" d="M341.555,372.807c.629-1.648,1.657-3.813,3.721-3.721.643.029.642-.971,0-1-2.566-.114-3.894,2.382-4.686,4.455-.23.6.737.862.964.266Z"/><path class="cls-26" d="M346.651,357.464c-1.353,1.65-2.517,3.479-1.856,5.726a.5.5,0,0,0,.964-.266c-.547-1.861.483-3.392,1.6-4.754.4-.494-.3-1.205-.707-.707Z"/><path class="cls-26" d="M354.079,350.784c-1.7,1.651-3.8,4.539-2.727,7.055.252.59,1.113.081.863-.5-.391-.918.131-2.441.537-3.286a9.308,9.308,0,0,1,2.034-2.557c.462-.449-.245-1.156-.707-.707Z"/><path class="cls-26" d="M356.2,357.278a10.21,10.21,0,0,0-3.916,2.53c-.7.8-1.683,2.151-.99,3.214.35.537,1.216.037.863-.5-.514-.789.965-2.2,1.467-2.641a10.072,10.072,0,0,1,2.841-1.634c.585-.244.328-1.212-.266-.964Z"/><path class="cls-26" d="M366.286,356.658c-1.576,1.306-3.087,3.223-2.432,5.381.186.614,1.152.352.964-.266-.546-1.8.891-3.344,2.175-4.408.5-.411-.215-1.115-.707-.707Z"/><path class="cls-26" d="M358.607,368.147c.306.412.557.856.884,1.253.41.5,1.114-.214.707-.707-.271-.329-.474-.708-.728-1.05-.379-.511-1.248-.013-.863.5Z"/><path class="cls-26" d="M375.364,356.573a6.046,6.046,0,0,1,.749,1.036c.27.583,1.133.076.863-.5a5.972,5.972,0,0,0-.749-1.036c-.382-.508-1.251-.01-.863.5Z"/><path class="cls-26" d="M372.773,363.483l.288.4c.371.519,1.239.02.863-.5l-.288-.4c-.371-.519-1.239-.02-.863.5Z"/><path class="cls-26" d="M380.46,360.563a.5.5,0,0,0,0-1,.5.5,0,0,0,0,1Z"/><path class="cls-26" d="M370.44,370.755a.5.5,0,0,0,0-1,.5.5,0,0,0,0,1Z"/><path class="cls-26" d="M363.278,379.9c.485.241.974.472,1.44.749a.5.5,0,0,0,.5-.863c-.466-.277-.955-.508-1.44-.749-.575-.285-1.082.577-.5.863Z"/><path class="cls-26" d="M350.725,381.628a20.214,20.214,0,0,0,3.114,2.008c.6.228.863-.738.266-.964a19.188,19.188,0,0,1-2.875-1.907.5.5,0,0,0-.5.863Z"/><path class="cls-26" d="M377.948,378.23c.248-.111.482-.251.733-.357a2.767,2.767,0,0,1,.446-.147.4.4,0,0,1,.147-.013c.041.007-.066-.112.006.049.263.586,1.125.078.863-.5-.509-1.136-1.975-.215-2.7.109-.587.262-.079,1.124.5.863Z"/><path class="cls-26" d="M385.567,372.868a13.885,13.885,0,0,1,1.44.4c.594.246.853-.721.266-.964a13.892,13.892,0,0,0-1.44-.4.5.5,0,0,0-.266.964Z"/><path class="cls-26" d="M383.792,368.306a7.3,7.3,0,0,1,.921.806c.416.492,1.12-.218.707-.707a7.3,7.3,0,0,0-.921-.806c-.488-.414-1.2.29-.707.707Z"/><path class="cls-26" d="M393.722,372.213a6.834,6.834,0,0,1,.058.979.5.5,0,0,0,1,0,6.835,6.835,0,0,0-.058-.979c-.081-.629-1.082-.638-1,0Z"/><path class="cls-26" d="M377.638,371.446a.5.5,0,0,0,0-1,.5.5,0,0,0,0,1Z"/><path class="cls-26" d="M338.194,378.241a3.568,3.568,0,0,1,2.007.429c.485.419,1.2-.286.707-.707a4.49,4.49,0,0,0-2.714-.722c-.641-.052-.638.948,0,1Z"/><path class="cls-26" d="M346.947,374.556c.5-.048,1.313-.3,1.641.213.347.539,1.213.039.863-.5-.6-.927-1.541-.8-2.5-.708-.635.061-.641,1.061,0,1Z"/><path class="cls-26" d="M354.814,372.461a9.4,9.4,0,0,1,.673,2.977.5.5,0,0,0,1,0,10.207,10.207,0,0,0-.709-3.242c-.216-.6-1.183-.342-.964.266Z"/></g></g></g></svg>